<?xml version="1.0" encoding="UTF-8"?>
<svg width="140px" height="40px" viewBox="0 0 140 40" version="1.1" xmlns="http://www.w3.org/2000/svg" xmlns:xlink="http://www.w3.org/1999/xlink">
    <!-- Generator: Sketch 52.6 (67491) - http://www.bohemiancoding.com/sketch -->
    <title>logo</title>
    <desc>Created with Sketch.</desc>
    <defs>
        <path d="M30.0702022,0.860314719 C27.8207631,0.339685198 24.1231822,0 19.9430199,0 C15.7628577,0 12.0652767,0.339685198 9.81583774,0.860314719 C5.33087913,1.80414414 1.79900413,5.34611021 0.85786368,9.84388299 C0.338717434,12.099749 -4.40819161e-16,15.8078944 0,20 C4.40819161e-16,24.1921056 0.338717434,27.900251 0.85786368,30.156117 C1.79900413,34.6538898 5.33087913,38.1958559 9.81583774,39.1396853 C12.0652767,39.6603148 15.7628577,40 19.9430199,40 C24.1231822,40 27.8207631,39.6603148 30.0702022,39.1396853 C34.5551608,38.1958559 38.0870358,34.6538898 39.0281762,30.156117 C39.5473225,27.900251 39.8860399,24.1921056 39.8860399,20 C39.8860399,15.8078944 39.5473225,12.099749 39.0281762,9.84388299 C38.0870358,5.34611021 34.5551608,1.80414414 30.0702022,0.860314719 Z" id="path-1"></path>
    </defs>
    <g id="DEMO" stroke="none" stroke-width="1" fill="none" fill-rule="evenodd">
        <g id="demo-(research)" transform="translate(-200.000000, -15.000000)">
            <g id="header" transform="translate(200.000000, 13.000000)">
                <g id="logo" transform="translate(0.000000, 2.000000)">
                    <g id="icon">
                        <mask id="mask-2" fill="white">
                            <use xlink:href="#path-1"></use>
                        </mask>
                        <use id="bg" fill="#00B388" xlink:href="#path-1"></use>
                        <path d="M24.7352702,30.7050309 C24.3567964,29.8016173 23.5534896,29.1213397 22.5760873,28.915652 C21.9912332,28.7802883 21.0298621,28.6919702 19.9430199,28.6919702 C18.8561778,28.6919702 17.8948067,28.7802883 17.3099526,28.915652 C16.3395333,29.1198702 15.5407307,29.7919212 15.1589466,30.685702 C15.1589466,30.685702 15.1589466,30.685702 15.1589466,30.685702 L15.1589466,30.685702 C15.0265441,30.9956647 14.70929,31.184809 14.3736547,31.1538868 C14.2906478,31.1462472 14.2189476,31.1394083 14.1585534,31.1333777 C12.5945807,30.9772097 11.3653039,30.7593471 10.651094,30.5050968 C10.6499356,30.5044884 10.648519,30.5038687 10.646844,30.5032374 C10.1675709,30.3226126 9.82653471,29.8587282 9.82653471,29.3149629 C9.82653471,29.3014466 9.82674543,29.2879797 9.82716374,29.2745652 C9.82826244,29.2526801 9.82954366,29.2303302 9.83100627,29.2075204 C9.83143143,29.2024348 9.8318865,29.1973576 9.83237129,29.1922892 C9.83373261,29.1780568 9.83458563,29.1642967 9.83493035,29.151009 C9.95667387,27.518617 10.9452031,23.6969297 12.4216856,19.3349252 C14.1096087,14.348257 15.8748128,10.3111417 16.6708068,9.52371115 C16.7978497,9.39103771 16.9444533,9.27992482 17.1064991,9.19423595 C17.1697503,9.15800965 17.2498939,9.12336641 17.3450441,9.09068315 C17.3475305,9.08982444 17.3500195,9.08897134 17.3525111,9.08812387 C17.8754984,8.9107656 18.8393573,8.79197016 19.942059,8.79197016 C21.0466826,8.79197016 22.0105415,8.9107656 22.5325732,9.08780846 C22.5360204,9.08897134 22.5385094,9.08982444 22.5409958,9.09068315 C22.636146,9.12336641 22.7162896,9.15800965 22.7795408,9.19423595 C22.9415866,9.27992482 23.0881902,9.39103771 23.2140744,9.52228231 C23.2144852,9.52271066 23.2148715,9.52318694 23.2152331,9.52371115 C24.0112271,10.3111417 25.7764312,14.348257 27.4643543,19.3349252 C28.9408368,23.6969297 29.929366,27.518617 30.0511095,29.151009 C30.0514543,29.1642967 30.0523073,29.1780568 30.0536686,29.1922892 C30.0541534,29.1973576 30.0546085,29.2024348 30.0550336,29.2075204 C30.0564962,29.2303302 30.0577774,29.2526801 30.0588761,29.2745652 C30.0592945,29.2879797 30.0595052,29.3014466 30.0595052,29.3149629 C30.0595052,29.8587282 29.718469,30.3226126 29.2391959,30.5032374 C29.2375209,30.5038687 29.2361043,30.5044884 29.2349459,30.5050968 C28.5213629,30.7591239 27.293617,30.9768272 25.7316044,31.1329663 C25.6638343,31.1397406 25.5818874,31.147528 25.4857636,31.1563285 L25.4857623,31.1563135 C25.1639224,31.1857791 24.860149,31.0031154 24.7352702,30.7050309 C24.7352702,30.7050309 24.7352702,30.7050309 24.7352702,30.7050309 Z" id="Path" fill="#FFFFFF" fill-rule="nonzero" mask="url(#mask-2)"></path>
                    </g>
                    <path d="M63.7083236,13.325919 L67.5198387,13.325919 L67.5198387,30.0059207 L63.7083236,30.0059207 L63.7083236,27.0750406 C62.5172251,29.1539206 60.475342,30.3467207 57.820894,30.3467207 C53.3968139,30.3467207 49.8575499,26.4616005 49.8575499,21.6563203 C49.8575499,16.8510402 53.3968139,13 57.820894,13 C60.475342,13 62.5172251,14.1928 63.7083236,16.2716801 L63.7083236,13.325919 Z M120.772406,13.325919 L124.583921,13.325919 L124.583921,30.0059207 L120.772406,30.0059207 L120.772406,27.0750406 C119.581307,29.1539206 117.539424,30.3467207 114.884976,30.3467207 C110.460896,30.3467207 106.921632,26.4616005 106.921632,21.6563203 C106.921632,16.8510402 110.460896,13 114.884976,13 C117.539424,13 119.581307,14.1928 120.772406,16.2716801 L120.772406,13.325919 Z M58.7228054,26.7217604 C61.6154731,26.7217604 63.7934818,24.5406403 63.7934818,21.6438402 C63.7934818,18.7811201 61.6154731,16.6 58.7228054,16.6 C55.8982004,16.6 53.652129,18.8492801 53.652129,21.6438402 C53.652129,24.4724803 55.8982004,26.7217604 58.7228054,26.7217604 Z M115.587173,26.7217604 C118.479841,26.7217604 120.657849,24.5406403 120.657849,21.6438402 C120.657849,18.7811201 118.479841,16.6 115.587173,16.6 C112.762568,16.6 110.516497,18.8492801 110.516497,21.6438402 C110.516497,24.4724803 112.762568,26.7217604 115.587173,26.7217604 Z M73.2265665,5 C74.5537905,5 75.6768262,6.12464004 75.6768262,7.4196801 C75.6768262,8.78288015 74.5537905,9.87344019 73.2265665,9.87344019 C71.8993425,9.87344019 70.8103381,8.78288015 70.8103381,7.4196801 C70.8103381,6.12464004 71.8993425,5 73.2265665,5 Z M71.3548403,13.2800003 L75.132324,13.2800003 L75.132324,29.960001 L71.3548403,29.960001 L71.3548403,13.2800003 Z M86.9981288,12.9540803 C87.7258285,12.9540803 88.4265133,13.062294 88.9316982,13.2546177 C89.2290435,13.3678169 89.4913766,13.4928834 89.6949707,13.5985189 L88.1578058,16.8211873 C87.6734201,16.6741561 87.1486018,16.6006405 86.6237836,16.6006405 C84.7860888,16.6006405 82.7442057,18.1342405 82.7442057,21.0651206 L82.7442057,29.960001 L78.9667219,29.960001 L78.9667219,13.2799993 L82.7442057,13.2799993 L82.7442057,15.6804804 C83.4928962,14.0787204 85.3646223,12.9540803 86.9981288,12.9540803 Z M105.96987,25.7340808 C104.710709,28.4945609 101.78401,30.300801 98.3128084,30.300801 C93.3782576,30.300801 89.6007738,26.5860809 89.6007738,21.6444807 C89.6007738,16.7028805 93.3442262,12.9540803 98.278777,12.9540803 C101.511759,12.9540803 104.234269,14.5558404 105.459399,17.0096005 L102.260449,18.8158405 C101.579821,17.4867205 100.08244,16.6006405 98.278777,16.6006405 C95.4201407,16.6006405 93.3442262,18.7817605 93.3442262,21.6444807 C93.3442262,24.4731208 95.4541721,26.6542409 98.3128084,26.6542409 C100.252597,26.6542409 101.852072,25.7340808 102.600763,24.2004808 L105.96987,25.7340808 Z M132.195803,5 L132.195803,29.960001 L128.418319,29.960001 L128.418319,5 L132.195803,5 Z M139.807684,5 L139.807684,29.960001 L136.0302,29.960001 L136.0302,5 L139.807684,5 Z" id="woodmark" fill="#101820"></path>
                </g>
            </g>
        </g>
    </g>
</svg>